<mxfile host="app.diagrams.net" modified="2023-06-17T16:17:19.989Z" agent="Mozilla/5.0 (Windows NT 10.0; Win64; x64; rv:109.0) Gecko/20100101 Firefox/114.0" etag="NDr9Ka_ZNvGSG0gKC9S2" version="21.3.8" type="github">
  <diagram name="Page-1" id="4ZMmCbuOXie69UiiLjDK">
    <mxGraphModel dx="1434" dy="746" grid="1" gridSize="10" guides="1" tooltips="1" connect="1" arrows="1" fold="1" page="1" pageScale="1" pageWidth="850" pageHeight="1100" math="0" shadow="0">
      <root>
        <mxCell id="0" />
        <mxCell id="1" parent="0" />
        <mxCell id="FAqWBfu7AOVWyT7P0Eig-1" value="" style="endArrow=none;html=1;rounded=0;" edge="1" parent="1">
          <mxGeometry width="50" height="50" relative="1" as="geometry">
            <mxPoint x="360" y="410" as="sourcePoint" />
            <mxPoint x="360" y="150" as="targetPoint" />
          </mxGeometry>
        </mxCell>
        <mxCell id="FAqWBfu7AOVWyT7P0Eig-2" value="前CO-RE 时代" style="text;html=1;strokeColor=none;fillColor=none;align=center;verticalAlign=middle;whiteSpace=wrap;rounded=0;" vertex="1" parent="1">
          <mxGeometry x="150" y="100" width="120" height="30" as="geometry" />
        </mxCell>
        <mxCell id="FAqWBfu7AOVWyT7P0Eig-3" value="CO-RE 时代" style="text;html=1;strokeColor=none;fillColor=none;align=center;verticalAlign=middle;whiteSpace=wrap;rounded=0;" vertex="1" parent="1">
          <mxGeometry x="425" y="100" width="120" height="30" as="geometry" />
        </mxCell>
        <mxCell id="FAqWBfu7AOVWyT7P0Eig-4" value="后 CO-RE 时代" style="text;html=1;strokeColor=none;fillColor=none;align=center;verticalAlign=middle;whiteSpace=wrap;rounded=0;" vertex="1" parent="1">
          <mxGeometry x="750" y="100" width="120" height="30" as="geometry" />
        </mxCell>
        <mxCell id="FAqWBfu7AOVWyT7P0Eig-5" value="" style="endArrow=none;html=1;rounded=0;" edge="1" parent="1">
          <mxGeometry width="50" height="50" relative="1" as="geometry">
            <mxPoint x="640" y="410" as="sourcePoint" />
            <mxPoint x="640" y="150" as="targetPoint" />
          </mxGeometry>
        </mxCell>
        <mxCell id="FAqWBfu7AOVWyT7P0Eig-11" style="edgeStyle=orthogonalEdgeStyle;rounded=0;orthogonalLoop=1;jettySize=auto;html=1;curved=1;" edge="1" parent="1" source="FAqWBfu7AOVWyT7P0Eig-6" target="FAqWBfu7AOVWyT7P0Eig-9">
          <mxGeometry relative="1" as="geometry" />
        </mxCell>
        <mxCell id="FAqWBfu7AOVWyT7P0Eig-6" value="BCC" style="rounded=0;whiteSpace=wrap;html=1;" vertex="1" parent="1">
          <mxGeometry x="190" y="180" width="120" height="60" as="geometry" />
        </mxCell>
        <mxCell id="FAqWBfu7AOVWyT7P0Eig-7" value="" style="rounded=0;whiteSpace=wrap;html=1;" vertex="1" parent="1">
          <mxGeometry x="100" y="300" width="120" height="60" as="geometry" />
        </mxCell>
        <mxCell id="FAqWBfu7AOVWyT7P0Eig-10" style="edgeStyle=orthogonalEdgeStyle;rounded=0;orthogonalLoop=1;jettySize=auto;html=1;entryX=0;entryY=0.5;entryDx=0;entryDy=0;" edge="1" parent="1" source="FAqWBfu7AOVWyT7P0Eig-8" target="FAqWBfu7AOVWyT7P0Eig-6">
          <mxGeometry relative="1" as="geometry" />
        </mxCell>
        <mxCell id="FAqWBfu7AOVWyT7P0Eig-8" value="Python/C" style="rounded=0;whiteSpace=wrap;html=1;" vertex="1" parent="1">
          <mxGeometry y="180" width="120" height="60" as="geometry" />
        </mxCell>
        <mxCell id="FAqWBfu7AOVWyT7P0Eig-9" value="" style="shape=image;verticalLabelPosition=bottom;labelBackgroundColor=default;verticalAlign=top;aspect=fixed;imageAspect=0;image=https://upload.wikimedia.org/wikipedia/commons/thumb/b/b0/EBPF_logo.png/120px-EBPF_logo.png;" vertex="1" parent="1">
          <mxGeometry x="100" y="300" width="120" height="42" as="geometry" />
        </mxCell>
        <mxCell id="FAqWBfu7AOVWyT7P0Eig-16" style="edgeStyle=orthogonalEdgeStyle;rounded=0;orthogonalLoop=1;jettySize=auto;html=1;entryX=0.5;entryY=0;entryDx=0;entryDy=0;curved=1;" edge="1" parent="1" source="FAqWBfu7AOVWyT7P0Eig-12" target="FAqWBfu7AOVWyT7P0Eig-14">
          <mxGeometry relative="1" as="geometry" />
        </mxCell>
        <mxCell id="FAqWBfu7AOVWyT7P0Eig-12" value="libbpf/libbpf-rs" style="rounded=0;whiteSpace=wrap;html=1;" vertex="1" parent="1">
          <mxGeometry x="510" y="170" width="120" height="60" as="geometry" />
        </mxCell>
        <mxCell id="FAqWBfu7AOVWyT7P0Eig-15" style="edgeStyle=orthogonalEdgeStyle;rounded=0;orthogonalLoop=1;jettySize=auto;html=1;curved=1;" edge="1" parent="1" source="FAqWBfu7AOVWyT7P0Eig-13" target="FAqWBfu7AOVWyT7P0Eig-14">
          <mxGeometry relative="1" as="geometry" />
        </mxCell>
        <mxCell id="FAqWBfu7AOVWyT7P0Eig-13" value="C/Rust" style="rounded=0;whiteSpace=wrap;html=1;" vertex="1" parent="1">
          <mxGeometry x="365" y="140" width="120" height="60" as="geometry" />
        </mxCell>
        <mxCell id="FAqWBfu7AOVWyT7P0Eig-14" value="" style="rounded=0;whiteSpace=wrap;html=1;" vertex="1" parent="1">
          <mxGeometry x="380" y="370" width="120" height="60" as="geometry" />
        </mxCell>
        <mxCell id="FAqWBfu7AOVWyT7P0Eig-17" value="" style="shape=image;verticalLabelPosition=bottom;labelBackgroundColor=default;verticalAlign=top;aspect=fixed;imageAspect=0;image=https://upload.wikimedia.org/wikipedia/commons/thumb/b/b0/EBPF_logo.png/120px-EBPF_logo.png;" vertex="1" parent="1">
          <mxGeometry x="380" y="370" width="120" height="42" as="geometry" />
        </mxCell>
        <mxCell id="FAqWBfu7AOVWyT7P0Eig-20" value="clang" style="text;html=1;align=center;verticalAlign=middle;resizable=0;points=[];autosize=1;strokeColor=none;fillColor=none;" vertex="1" parent="1">
          <mxGeometry x="240" y="250" width="50" height="30" as="geometry" />
        </mxCell>
        <mxCell id="FAqWBfu7AOVWyT7P0Eig-29" style="edgeStyle=orthogonalEdgeStyle;rounded=0;orthogonalLoop=1;jettySize=auto;html=1;entryX=0.5;entryY=0;entryDx=0;entryDy=0;curved=1;" edge="1" parent="1" source="FAqWBfu7AOVWyT7P0Eig-24" target="FAqWBfu7AOVWyT7P0Eig-14">
          <mxGeometry relative="1" as="geometry" />
        </mxCell>
        <mxCell id="FAqWBfu7AOVWyT7P0Eig-24" value="btf" style="rounded=0;whiteSpace=wrap;html=1;" vertex="1" parent="1">
          <mxGeometry x="510" y="240" width="120" height="60" as="geometry" />
        </mxCell>
        <mxCell id="FAqWBfu7AOVWyT7P0Eig-23" value="clang" style="text;html=1;align=center;verticalAlign=middle;resizable=0;points=[];autosize=1;strokeColor=none;fillColor=none;" vertex="1" parent="1">
          <mxGeometry x="435" y="330" width="50" height="30" as="geometry" />
        </mxCell>
      </root>
    </mxGraphModel>
  </diagram>
</mxfile>
